<?xml version="1.0" encoding="UTF-8"?>
<svg version="1.1" xmlns="http://www.w3.org/2000/svg" width="1024" height="1024">
<path d="M0 0 C29.04 0 58.08 0 88 0 C88 35.64 88 71.28 88 108 C91.63 108.33 95.26 108.66 99 109 C102.22631836 109.62915039 102.22631836 109.62915039 104.83984375 110.34765625 C105.82992432 110.61892334 106.82000488 110.89019043 107.84008789 111.16967773 C108.86223389 111.46430908 109.88437988 111.75894043 110.9375 112.0625 C112.02216553 112.37195557 113.10683105 112.68141113 114.22436523 113.00024414 C148.49019756 123.0456267 180.42159123 140.98319302 206 166 C204.4020683 169.86242919 201.77849763 172.58216189 198.9375 175.5625 C195.31013008 179.43675897 191.82453427 183.35785875 188.5 187.5 C184.86500611 192.01777813 181.0328971 196.27818516 177.0859375 200.51953125 C174.09558642 203.75211747 171.26213671 207.06705866 168.5 210.5 C164.87162802 215.00954804 161.05532565 219.27205941 157.10131836 223.49316406 C153.10347817 227.79300697 149.51370826 232.32952252 145.97265625 237.015625 C145.32167969 237.67046875 144.67070313 238.3253125 144 239 C139.53958899 239 138.88419254 238.31769347 135.84082031 235.34326172 C135.31584961 234.81748535 134.79087891 234.29170898 134.25 233.75 C109.7909717 210.31883824 77.73722175 192.17738063 43.09375 192.75 C25.22272679 193.62775163 6.8074606 197.4044954 -5.875 211.01171875 C-14.90953437 222.50816374 -17.16102994 234.5385638 -16 249 C-12.91145112 265.42294254 -2.5546425 278.08768981 10.80151367 287.61499023 C26.17833464 298.07156958 43.25051451 306.23074395 59.88696289 314.46191406 C67.76803302 318.36139773 75.55071415 322.43269979 83.30957031 326.56933594 C86.30354322 328.16141227 89.30434197 329.74028091 92.3046875 331.3203125 C114.52962619 343.08232845 135.09231872 355.5748753 153.546875 372.734375 C155.69558551 374.71885286 157.88880045 376.61595786 160.125 378.5 C183.25049976 398.76412961 200.20376444 429.45873689 204 460 C204.23977043 465.28875437 204.24569557 470.58135694 204.25 475.875 C204.25067474 476.61676483 204.25134949 477.35852966 204.25204468 478.12277222 C204.2362466 489.03688072 203.84605991 499.4012729 201 510 C200.82307617 510.66692871 200.64615234 511.33385742 200.46386719 512.02099609 C197.90723317 521.44610026 194.46656346 530.29904594 190 539 C189.49984375 539.98355469 188.9996875 540.96710937 188.484375 541.98046875 C171.92790318 572.40097644 140.2606734 591.24573259 108 601 C101.73 602.65 95.46 604.3 89 606 C88.67 642.3 88.34 678.6 88 716 C58.96 716 29.92 716 0 716 C0 681.68 0 647.36 0 612 C-9.24 611.34 -18.48 610.68 -28 610 C-33.02978961 609.48000295 -37.99972845 608.94458506 -43 608.25 C-44.22799316 608.08153564 -45.45598633 607.91307129 -46.72119141 607.73950195 C-64.21720295 605.22776478 -81.4421721 601.47264193 -98.4375 596.625 C-99.29843262 596.38160889 -100.15936523 596.13821777 -101.04638672 595.88745117 C-111.23175025 592.85220907 -121.09854452 588.84222658 -131 585 C-129.1367779 570.59570443 -127.27065521 556.19178817 -125.40014648 541.78843689 C-124.53722413 535.14299796 -123.67626586 528.49731209 -122.81809998 521.85125732 C-122.36129035 518.3180917 -121.90204731 514.785246 -121.44198608 511.25250244 C-121.23131416 509.63085391 -121.02169243 508.00906858 -120.81314087 506.387146 C-120.5266177 504.16007297 -120.23644361 501.93350587 -119.9453125 499.70703125 C-119.78562988 498.4744458 -119.62594727 497.24186035 -119.46142578 495.97192383 C-119 493 -119 493 -118 490 C-112.78623322 491.68746645 -107.63740847 493.48898515 -102.5078125 495.41796875 C-70.91053649 507.29888809 -38.64621569 517.05736668 -5 521 C-3.8545874 521.14139404 -3.8545874 521.14139404 -2.68603516 521.28564453 C5.85183724 522.20968532 14.40765146 522.22112573 22.98583984 522.24023438 C25.59896129 522.24990365 28.21128195 522.28100104 30.82421875 522.3125 C51.34714736 522.44292206 72.74354228 519.66746631 89 506 C89.65484375 505.45601562 90.3096875 504.91203125 90.984375 504.3515625 C99.00486048 497.05086418 102.41888542 487.36674477 103.25390625 476.78125 C103.75679365 462.11640456 99.34452586 451.09781056 89.5625 440.3125 C88.716875 439.549375 87.87125 438.78625 87 438 C86.46536133 437.48832275 85.93072266 436.97664551 85.37988281 436.44946289 C80.10900575 431.56720602 74.58891449 428.32948969 68.1875 425.125 C67.07528076 424.55765137 65.96306152 423.99030273 64.81713867 423.40576172 C48.62335935 415.17905124 32.26423423 407.27054122 15.94087219 399.3053894 C-14.53164809 384.4351596 -14.53164809 384.4351596 -24.25 379 C-25.00176514 378.57976562 -25.75353027 378.15953125 -26.52807617 377.7265625 C-41.83558553 369.07399325 -55.77522502 358.60370326 -68.46875 346.46386719 C-69.50568341 345.47256414 -70.54751769 344.48636667 -71.59375 343.50488281 C-91.01663172 325.23756918 -104.99721189 303.00845306 -112.75 277.4375 C-112.94883789 276.78982666 -113.14767578 276.14215332 -113.35253906 275.47485352 C-116.79382884 263.51445316 -117.40662831 251.42532162 -117.375 239.0625 C-117.37478851 238.29675659 -117.37457703 237.53101318 -117.37435913 236.74206543 C-117.33890761 223.83368118 -116.32962369 211.5250758 -113 199 C-112.81808105 198.30616211 -112.63616211 197.61232422 -112.44873047 196.89746094 C-104.22472832 166.80893119 -83.71792496 142.07852655 -56.90625 126.6015625 C-40.43003191 117.39465411 -19.07446438 108 0 108 C0 72.36 0 36.72 0 0 Z " fill="#93C77D" transform="translate(681,154)"/>
<path d="M0 0 C103.29 0 206.58 0 313 0 C313 27.39 313 54.78 313 83 C276.7 83 240.4 83 203 83 C203 190.91 203 298.82 203 410 C239.3 410 275.6 410 313 410 C313 437.72 313 465.44 313 494 C209.71 494 106.42 494 0 494 C0 466.28 0 438.56 0 410 C36.3 410 72.6 410 110 410 C110 302.09 110 194.18 110 83 C73.7 83 37.4 83 0 83 C0 55.61 0 28.22 0 0 Z " fill="#93C87E" transform="translate(147,265)"/>
</svg>
